<svg width="47" height="47" viewBox="0 0 47 47" fill="none" xmlns="http://www.w3.org/2000/svg">
<path d="M17.625 13.7082H25.4583C26.4971 13.7082 27.4933 14.1208 28.2278 14.8553C28.9623 15.5899 29.375 16.5861 29.375 17.6248V21.5415C29.375 22.5803 28.9623 23.5765 28.2278 24.311C27.4933 25.0455 26.4971 25.4582 25.4583 25.4582H21.5416V29.3748H29.375V33.2915H17.625V25.4582C17.625 24.4194 18.0376 23.4232 18.7721 22.6887C19.5066 21.9542 20.5029 21.5415 21.5416 21.5415H25.4583V17.6248H17.625V13.7082ZM23.5 3.9165C26.0717 3.9165 28.6182 4.42304 30.9942 5.4072C33.3701 6.39135 35.529 7.83385 37.3475 9.65233C39.1659 11.4708 40.6084 13.6297 41.5926 16.0056C42.5768 18.3816 43.0833 20.9281 43.0833 23.4998C43.0833 28.6937 41.0201 33.6748 37.3475 37.3473C33.6749 41.0199 28.6938 43.0832 23.5 43.0832C20.9282 43.0832 18.3817 42.5766 16.0057 41.5925C13.6298 40.6083 11.4709 39.1658 9.65245 37.3473C5.97986 33.6748 3.91663 28.6937 3.91663 23.4998C3.91663 18.306 5.97986 13.3249 9.65245 9.65233C13.325 5.97974 18.3061 3.9165 23.5 3.9165ZM23.5 7.83317C19.3449 7.83317 15.36 9.48376 12.422 12.4218C9.48388 15.3599 7.83329 19.3448 7.83329 23.4998C7.83329 27.6549 9.48388 31.6398 12.422 34.5778C15.36 37.5159 19.3449 39.1665 23.5 39.1665C27.655 39.1665 31.6399 37.5159 34.578 34.5778C37.516 31.6398 39.1666 27.6549 39.1666 23.4998C39.1666 19.3448 37.516 15.3599 34.578 12.4218C31.6399 9.48376 27.655 7.83317 23.5 7.83317Z" fill="black"/>
</svg>
